<svg xmlns="http://www.w3.org/2000/svg" width="13.211" height="15.293" viewBox="0 0 13.211 15.293">
  <path id="Path_9943" data-name="Path 9943" d="M79.142,23.06c.106-.255.234-.361.4-.361h.531c.17,0,.3.106.4.361l1,3.228H78.144ZM77.932,33.128V30.155h3.759v2.974c0,.531.255.765.828.765h3.207c.531,0,.765-.234.765-.765V27.521a9.856,9.856,0,0,0-.828-3.4L83.815,19.3a.988.988,0,0,0-1.062-.7H77.039a1,1,0,0,0-1.083.7l-1.848,4.821a9.856,9.856,0,0,0-.828,3.4v5.607c0,.531.234.765.765.765h3.122C77.7,33.893,77.932,33.659,77.932,33.128Z" transform="translate(-73.28 -18.6)" fill="currentColor"/>
</svg>
