<svg xmlns="http://www.w3.org/2000/svg" width="20.584" height="25.282" viewBox="0 0 20.584 25.282">
  <path id="Apple_logo_black_1_" data-name="Apple_logo_black (1)" d="M19.926,8.619a5.726,5.726,0,0,0-2.736,4.817,5.574,5.574,0,0,0,3.393,5.112,13.259,13.259,0,0,1-1.737,3.588c-1.082,1.557-2.212,3.112-3.932,3.112s-2.162-1-4.147-1c-1.934,0-2.622,1.032-4.195,1.032S3.9,23.84,2.642,22.07A15.486,15.486,0,0,1,0,13.7C0,8.784,3.2,6.177,6.341,6.177c1.671,0,3.064,1.1,4.114,1.1,1,0,2.556-1.163,4.458-1.163a5.961,5.961,0,0,1,5.014,2.508ZM14.01,4.03A5.645,5.645,0,0,0,15.353.508,2.427,2.427,0,0,0,15.3,0a5.655,5.655,0,0,0-3.719,1.917,5.5,5.5,0,0,0-1.393,3.426,2.322,2.322,0,0,0,.048.458,1.979,1.979,0,0,0,.344.033,4.9,4.9,0,0,0,3.426-1.8Z" fill="currentColor"/>
</svg>
