<svg id="Group_8451" data-name="Group 8451" xmlns="http://www.w3.org/2000/svg" width="21.916" height="24.494" viewBox="0 0 21.916 24.494">
  <path id="path37" d="M23.566,25.9,13.428,36.66v.006a2.741,2.741,0,0,0,4.034,1.652L17.5,38.3l11.413-6.586L23.567,25.9" transform="translate(-13.334 -14.201)" fill="#eb3131"/>
  <path id="path39" d="M37.787,22.189l-.01-.007-4.927-2.856L27.3,24.265l5.57,5.57,4.9-2.828a2.74,2.74,0,0,0,.016-4.818" transform="translate(-17.297 -12.323)" fill="#f6b60b"/>
  <path id="path41" d="M13.389,12.37a2.684,2.684,0,0,0-.093.7V32.091a2.647,2.647,0,0,0,.093.7L23.877,22.309,13.389,12.37" transform="translate(-13.296 -10.335)" fill="#5778c5"/>
  <path id="path43" d="M23.641,21.769l5.248-5.246-11.4-6.609a2.744,2.744,0,0,0-4.062,1.64.008.008,0,0,0,0,0L23.641,21.769" transform="translate(-13.333 -9.522)" fill="#3bad49"/>
</svg>
