<svg xmlns="http://www.w3.org/2000/svg" xmlns:xlink="http://www.w3.org/1999/xlink" width="29.578" height="29.578" viewBox="0 0 29.578 29.578">
  <defs>
    <clipPath id="clip-path">
      <rect id="Rectangle_18" data-name="Rectangle 18" width="29.578" height="29.578" fill="currentColor"/>
    </clipPath>
  </defs>
  <g id="Group_8418" data-name="Group 8418" transform="translate(-1468 -71)">
    <g id="Group_7118" data-name="Group 7118" transform="translate(1468 71)">
      <g id="Group_7117" data-name="Group 7117" clip-path="url(#clip-path)">
        <path id="Path_10" data-name="Path 10" d="M25.247,4.331a14.79,14.79,0,1,0,4.332,10.457A14.743,14.743,0,0,0,25.247,4.331M.933,15.251H4.259a19.412,19.412,0,0,0,1.415,6.967H3.081A13.794,13.794,0,0,1,.933,15.251m18.793-.925a40.6,40.6,0,0,0-.639-6.967H22.9a18.339,18.339,0,0,1,1.494,6.967Zm-8.949,0A39.4,39.4,0,0,1,11.43,7.36h6.718a39.4,39.4,0,0,1,.653,6.967Zm8.025.925a39.4,39.4,0,0,1-.653,6.967H11.43a39.4,39.4,0,0,1-.653-6.967Zm.1-8.815c-.151-.684-.319-1.324-.5-1.915a10.676,10.676,0,0,0-1.56-3.279,9.319,9.319,0,0,1,4.7,3.681,13.787,13.787,0,0,1,.921,1.512ZM17.514,4.8c.159.509.306,1.058.439,1.64H11.625c.133-.583.28-1.131.439-1.64C12.811,2.4,13.779.924,14.789.924S16.767,2.4,17.514,4.8m-6.332-.274c-.184.591-.353,1.231-.5,1.915H7.123a13.747,13.747,0,0,1,.921-1.512,9.317,9.317,0,0,1,4.7-3.681,10.679,10.679,0,0,0-1.56,3.279M10.491,7.36a40.563,40.563,0,0,0-.639,6.967H5.184A18.334,18.334,0,0,1,6.677,7.36ZM4.259,14.326H.933A13.791,13.791,0,0,1,3.081,7.36H5.674a19.412,19.412,0,0,0-1.415,6.967m.925.925H9.852a40.593,40.593,0,0,0,.639,6.967H6.677a18.335,18.335,0,0,1-1.494-6.967m5.5,7.891c.151.683.32,1.324.5,1.915a10.678,10.678,0,0,0,1.56,3.279,9.317,9.317,0,0,1-4.7-3.681,13.771,13.771,0,0,1-.921-1.512Zm1.385,1.64c-.159-.509-.306-1.058-.439-1.64h6.329c-.133.583-.28,1.131-.439,1.64-.747,2.392-1.715,3.872-2.725,3.872s-1.978-1.48-2.725-3.872m6.332.274c.185-.59.353-1.231.5-1.915h3.556a13.812,13.812,0,0,1-.921,1.512,9.318,9.318,0,0,1-4.7,3.681,10.675,10.675,0,0,0,1.56-3.279m.692-2.839a40.606,40.606,0,0,0,.639-6.967h4.669A18.34,18.34,0,0,1,22.9,22.218Zm6.232-6.967h3.326A13.793,13.793,0,0,1,26.5,22.218H23.9a19.409,19.409,0,0,0,1.415-6.967m0-.925A19.409,19.409,0,0,0,23.9,7.36H26.5a13.79,13.79,0,0,1,2.148,6.967Zm-.726-9.342a13.942,13.942,0,0,1,1.262,1.451H23.488a14.9,14.9,0,0,0-1.2-2.043,11.956,11.956,0,0,0-2.26-2.443,13.9,13.9,0,0,1,4.563,3.035m-19.608,0A13.884,13.884,0,0,1,9.548,1.949a11.956,11.956,0,0,0-2.26,2.443,14.9,14.9,0,0,0-1.2,2.043H3.723A13.911,13.911,0,0,1,4.985,4.985m0,19.608a13.91,13.91,0,0,1-1.262-1.451H6.09a14.9,14.9,0,0,0,1.2,2.043,11.925,11.925,0,0,0,2.26,2.443,13.881,13.881,0,0,1-4.563-3.035m19.608,0a13.881,13.881,0,0,1-4.563,3.035,11.926,11.926,0,0,0,2.26-2.443,14.9,14.9,0,0,0,1.2-2.043h2.367a13.94,13.94,0,0,1-1.262,1.451" fill="currentColor"/>
      </g>
    </g>
  </g>
</svg>
