<svg xmlns="http://www.w3.org/2000/svg" width="246.841" height="37.016" viewBox="0 0 246.841 37.016">
  <path id="Path_9935" data-name="Path 9935" d="M39.238,44.9q0,.32-.34.32l-5.686-.08H20.82l-5.746.08a.283.283,0,0,1-.32-.32V43.159q0-.36.32-.36l5.746.08h4.925V31.628H18.778A37.618,37.618,0,0,1,13.113,39.9q-.42.4-.5.4t-.521-.44a5.021,5.021,0,0,0-1.481-1.061q6.366-6.306,9.549-17.257h-1.6l-5.766.08q-.34,0-.34-.32V19.516q0-.32.34-.32l5.766.08H20.74q.621-2.422,1.181-5.706a24.95,24.95,0,0,0,.22-2.723,3.982,3.982,0,0,0-.02-.46,20.59,20.59,0,0,1,2.542.521q.581.2.581.5a1.4,1.4,0,0,1-.3.661,14.108,14.108,0,0,0-.761,2.823q-.26,1.3-.941,4.384h9.389l5.746-.08a.283.283,0,0,1,.32.32V21.3a.283.283,0,0,1-.32.32l-5.746-.08h-9.97a53,53,0,0,1-2.823,7.868H31.03l5.085-.08a.283.283,0,0,1,.32.32v1.742a.283.283,0,0,1-.32.32l-5.085-.08H28.167V42.879h5.045L38.9,42.8q.34,0,.34.36ZM13.433,11.068a.822.822,0,0,1-.38.621,4.688,4.688,0,0,0-.861,1.562,63.988,63.988,0,0,1-2.743,6.306V40.1l.08,6.446q0,.28-.34.28H7.227q-.32,0-.32-.28l.08-6.446V29.446q0-3.824.08-5.786a51.283,51.283,0,0,1-3.784,5.145q-.3.36-.48.36t-.42-.42a5.9,5.9,0,0,0-1.1-1.562A41.549,41.549,0,0,0,9.81,12.549a13.327,13.327,0,0,0,.621-2.743,16.788,16.788,0,0,1,2.542.821Q13.433,10.788,13.433,11.068ZM67.28,22.7a42.582,42.582,0,0,0,4.8,12.092,30.982,30.982,0,0,0,8.528,9.589,5.749,5.749,0,0,0-1.762,1.441q-.42.521-.621.521a1.435,1.435,0,0,1-.581-.36,33.8,33.8,0,0,1-7.828-9.89,38.875,38.875,0,0,1-3.884-10.13,41.705,41.705,0,0,1-6.927,11.171A37.864,37.864,0,0,1,46.58,46.522a2.268,2.268,0,0,1-.621.2q-.16,0-.521-.621a6.338,6.338,0,0,0-1.4-1.441A35.717,35.717,0,0,0,57.11,35.271a41.964,41.964,0,0,0,8.408-15.655H55.849A40.645,40.645,0,0,1,47.6,30.207q-.36.36-.521.36-.2,0-.621-.5a5.064,5.064,0,0,0-1.521-1.141,34.228,34.228,0,0,0,10.67-14.975,15.016,15.016,0,0,0,.9-3.563,16.844,16.844,0,0,1,2.6.741q.541.24.541.521a1.2,1.2,0,0,1-.46.781,4.578,4.578,0,0,0-.761,1.481q-.781,2.022-1.441,3.4h8.648a1.7,1.7,0,0,0,.781-.12,1.1,1.1,0,0,1,.621-.2q.4,0,1.181.781.861.761.861,1.141a.786.786,0,0,1-.36.661,2.844,2.844,0,0,0-.7,1.1Q67.74,21.458,67.28,22.7Zm45.633,2.563h13.533v2.623H112.913V38.915q0,2.062.981,2.583a8.087,8.087,0,0,0,3.744.661q4.064,0,7.908-.38v3.083q-4.344.32-7.507.32-4.544,0-6.226-.981-2.042-1.221-2.042-4.925V27.884h-9.029V25.262h9.029V16.253h-7.708V13.57h23.042v2.683H112.913Zm21.235-10.45a70.254,70.254,0,0,1,9.629,6.106l-2.042,2.7a59.615,59.615,0,0,0-9.429-6.386Zm20.66,2.042,3.083,1.481q-1.822,10.51-7.627,17Q144.3,42,133.908,44.781L132.507,42Q151.745,37.253,154.808,16.854Zm24,15.415a36.883,36.883,0,0,1-14.634,12.953l-1.8-2.362a35.995,35.995,0,0,0,13.393-11.511,41.472,41.472,0,0,0,6.006-14.774H164.552V13.831h21.261a55.013,55.013,0,0,1-5.405,15.7A92.091,92.091,0,0,1,189.957,43.3l-3.023,1.922A73.584,73.584,0,0,0,178.806,32.269Zm32.626-.12a45.26,45.26,0,0,0-8.488-5.746l1.682-2.242a62.4,62.4,0,0,1,8.368,5.125,39.551,39.551,0,0,0,3.4-11.771H204.986a33.636,33.636,0,0,1-8.228,12.212l-2.422-1.642a33.929,33.929,0,0,0,9.509-17.257l3.163.781q-.34,1.321-.941,3.2h14.174q-2.082,13.553-7.347,20.72-4.765,6.486-13.753,10.27L197.2,43.5Q206.668,39.556,211.433,32.148Zm14.388-4.965h22.3v3.043h-22.3Z" transform="translate(-1.281 -9.807)" fill="#fff"/>
</svg>
