<svg xmlns="http://www.w3.org/2000/svg" width="11.792" height="13.065" viewBox="0 0 11.792 13.065">
  <g id="Group_8297" data-name="Group 8297" transform="translate(-35.6 -33.992)">
    <path id="Path_61" data-name="Path 61" d="M44.731,36.165l.819-1.392a.506.506,0,0,0-.86-.532l-.86,1.433a6.4,6.4,0,0,0-2.334-.45,6.024,6.024,0,0,0-2.293.45l-.86-1.433a.506.506,0,0,0-.86.532l.819,1.392a5.717,5.717,0,0,0-2.7,4.75v4.054a1.692,1.692,0,0,0,.9,1.515,1.83,1.83,0,0,0,1.883-.041.814.814,0,0,1,.86,0,4.438,4.438,0,0,0,2.252.614,4.33,4.33,0,0,0,2.252-.614.814.814,0,0,1,.86,0h0a1.828,1.828,0,0,0,1.883.041,1.739,1.739,0,0,0,.9-1.515V40.915A5.679,5.679,0,0,0,44.731,36.165Zm1.638,8.8a.722.722,0,0,1-.369.614.744.744,0,0,1-.819,0,1.813,1.813,0,0,0-1.924,0,3.327,3.327,0,0,1-3.48,0,1.971,1.971,0,0,0-.983-.287,1.718,1.718,0,0,0-.983.287.744.744,0,0,1-.819,0,.7.7,0,0,1-.369-.614V40.915a4.877,4.877,0,0,1,9.745,0Z" transform="translate(0)"/>
    <path id="Path_62" data-name="Path 62" d="M46.043,44.2a2.663,2.663,0,1,0,2.743,2.661A2.7,2.7,0,0,0,46.043,44.2Zm.7,4.176a.833.833,0,0,0,.246-.614.943.943,0,0,0-1.883,0,.833.833,0,0,0,.246.614,1.644,1.644,0,0,1-1.065-1.515,1.722,1.722,0,0,1,3.439,0A1.517,1.517,0,0,1,46.739,48.376Z" transform="translate(-4.547 -6.028)"/>
  </g>
</svg>
