<?xml version="1.0" encoding="UTF-8" standalone="no" ?>
<!DOCTYPE svg PUBLIC "-//W3C//DTD SVG 1.1//EN" "http://www.w3.org/Graphics/SVG/1.1/DTD/svg11.dtd">
<svg xmlns="http://www.w3.org/2000/svg" xmlns:xlink="http://www.w3.org/1999/xlink" version="1.1" width="337" height="487" viewBox="0 0 337 487" xml:space="preserve">
<desc>Created with Fabric.js 5.3.0</desc>
<defs>
</defs>
<g transform="matrix(1 0 0 1 168.338288588 243.6612279416)" id="u7caDxd9DqBhSpmuhUAcw"  >
<path style="stroke: rgb(255,255,255); stroke-width: 4; stroke-dasharray: none; stroke-linecap: butt; stroke-dashoffset: 0; stroke-linejoin: miter; stroke-miterlimit: 4; fill: rgb(252,249,249); fill-rule: nonzero; opacity: 1;"  transform=" translate(0, 0)" d="M 100.1385 241 L -100.13750000000002 241 C -117.61164000000002 241.01089 -134.37296000000003 234.07291 -146.72736000000003 221.71513 C -159.08176000000003 209.35735 -166.01517000000004 192.59413999999998 -165.99950000000004 175.12 L -165.99950000000004 -175.12 C -166.01756000000003 -192.59487000000001 -159.08492000000004 -209.35948000000002 -146.73000000000005 -221.71777 C -134.37508000000005 -234.07607000000002 -117.61237000000006 -241.01328 -100.13750000000005 -241 L 19.90949999999995 -241 C 25.30216999999995 -239.98224 30.61558999999995 -238.58203 35.80949999999995 -236.81 C 41.57266999999995 -234.87899000000002 47.08598999999995 -232.27003 52.23349999999995 -229.038 C 64.24449999999995 -221.31300000000002 70.76249999999995 -211.006 71.60649999999995 -198.405 C 71.79549999999995 -185.988 74.45149999999995 -175.387 79.50649999999996 -166.89600000000002 C 83.56097999999996 -160.06679000000003 89.33759999999995 -154.42190000000002 96.25849999999996 -150.526 C 104.19177999999995 -146.09614000000002 113.07611999999996 -143.64419 122.15849999999995 -143.37800000000001 L 130.92449999999994 -143.37800000000001 C 132.83474999999993 -143.60760000000002 134.75752999999995 -143.71715 136.68149999999994 -143.70600000000002 C 144.99449999999993 -143.70600000000002 159.85649999999995 -141.818 165.99949999999995 -129.17100000000002 L 165.99949999999995 175.11999999999998 C 166.01755999999995 192.5947 159.08505999999994 209.35914999999997 146.73035999999996 221.71741999999998 C 134.37565999999995 234.07568999999998 117.61320999999997 241.01301999999998 100.13849999999996 240.99999999999997 z" stroke-linecap="round" />
</g>
</svg>