<svg xmlns="http://www.w3.org/2000/svg" xmlns:xlink="http://www.w3.org/1999/xlink" width="399" height="549" viewBox="0 0 399 549">
  <defs>
    <filter id="Subtraction_5" x="0" y="0" width="399" height="549" filterUnits="userSpaceOnUse">
      <feOffset dx="13" dy="10" input="SourceAlpha"/>
      <feGaussianBlur stdDeviation="10.5" result="blur"/>
      <feFlood flood-color="#cfcfcf" flood-opacity="0.451"/>
      <feComposite operator="in" in2="blur"/>
      <feComposite in="SourceGraphic"/>
    </filter>
  </defs>
  <g transform="matrix(1, 0, 0, 1, 0, 0)" filter="url(#Subtraction_5)">
    <path id="Subtraction_5-2" data-name="Subtraction 5" d="M266.138,482H65.862A65.821,65.821,0,0,1,0,416.12V65.88A65.812,65.812,0,0,1,65.862,0H185.909a115.684,115.684,0,0,1,15.9,4.19,76.729,76.729,0,0,1,16.424,7.772c12.011,7.725,18.529,18.032,19.373,30.633.189,12.417,2.845,23.018,7.9,31.509a45.357,45.357,0,0,0,16.752,16.37,56.521,56.521,0,0,0,25.9,7.148h8.766a46.007,46.007,0,0,1,5.757-.328c8.313,0,23.175,1.888,29.318,14.535V416.12A65.812,65.812,0,0,1,266.138,482Z" transform="translate(20.5 23.5)" fill="#fcf9f9" stroke="#fff" stroke-width="4"/>
  </g>
</svg>
