<svg xmlns="http://www.w3.org/2000/svg" width="220.934" height="114" viewBox="0 0 220.934 114">
  <path id="Subtraction_3" data-name="Subtraction 3" d="M198.059,114H45A44.963,44.963,0,0,1,0,69V23A23,23,0,0,1,23,0H163.442a30.778,30.778,0,0,1,9.508,2.957,19.609,19.609,0,0,1,6.657,5.315,15.771,15.771,0,0,1,3.277,9.312c.564,15.468,4.42,22.523,14.737,26.96,1.783.767,3.683,1.445,5.52,2.1,4.351,1.552,8.849,3.157,12.174,6.07a14.992,14.992,0,0,1,4.02,5.533,21.543,21.543,0,0,1,1.526,8.527V93.395l.074,0A23,23,0,0,1,198.059,114Z" fill="#f8f5f5" opacity="0.28"/>
</svg>
