<svg xmlns="http://www.w3.org/2000/svg" width="204.698" height="30.696" viewBox="0 0 204.698 30.696">
  <path id="Path_9936" data-name="Path 9936" d="M32.539,37.747q0,.266-.282.266l-4.715-.066H17.266l-4.765.066a.235.235,0,0,1-.266-.266V36.3q0-.3.266-.3l4.765.066H21.35V26.74H15.572a31.2,31.2,0,0,1-4.7,6.856q-.349.332-.415.332t-.432-.365a4.164,4.164,0,0,0-1.229-.88q5.279-5.229,7.919-14.311H15.39l-4.781.066q-.282,0-.282-.266V16.7q0-.266.282-.266l4.781.066H17.2q.515-2.009.979-4.731a20.69,20.69,0,0,0,.183-2.258,3.3,3.3,0,0,0-.017-.382,17.075,17.075,0,0,1,2.108.432q.481.166.481.415a1.159,1.159,0,0,1-.249.548,11.7,11.7,0,0,0-.631,2.341q-.216,1.079-.78,3.636h7.786l4.765-.066a.235.235,0,0,1,.266.266v1.478a.235.235,0,0,1-.266.266l-4.765-.066H18.793A43.948,43.948,0,0,1,16.452,24.9h9.28l4.217-.066a.235.235,0,0,1,.266.266v1.444a.235.235,0,0,1-.266.266l-4.217-.066H23.358v9.33h4.184L32.257,36q.282,0,.282.3ZM11.14,9.69a.682.682,0,0,1-.315.515A3.887,3.887,0,0,0,10.11,11.5a53.063,53.063,0,0,1-2.274,5.229V33.763L7.9,39.108q0,.232-.282.232H5.993q-.266,0-.266-.232l.066-5.346V24.931q0-3.171.066-4.8A42.527,42.527,0,0,1,2.723,24.4q-.249.3-.4.3t-.349-.349a4.894,4.894,0,0,0-.913-1.295A34.455,34.455,0,0,0,8.135,10.919a11.051,11.051,0,0,0,.515-2.274,13.921,13.921,0,0,1,2.108.681Q11.14,9.458,11.14,9.69Zm44.654,9.646a35.312,35.312,0,0,0,3.984,10.027,25.693,25.693,0,0,0,7.072,7.952,4.768,4.768,0,0,0-1.461,1.2q-.349.432-.515.432a1.19,1.19,0,0,1-.481-.3,28.027,28.027,0,0,1-6.491-8.2,32.238,32.238,0,0,1-3.221-8.4,34.585,34.585,0,0,1-5.744,9.264,31.4,31.4,0,0,1-10.31,7.786,1.881,1.881,0,0,1-.515.166q-.133,0-.432-.515a5.256,5.256,0,0,0-1.162-1.2A29.619,29.619,0,0,0,47.36,29.762a34.8,34.8,0,0,0,6.973-12.982H46.314a33.706,33.706,0,0,1-6.84,8.782q-.3.3-.432.3-.166,0-.515-.415a4.2,4.2,0,0,0-1.262-.946,28.384,28.384,0,0,0,8.849-12.418,12.452,12.452,0,0,0,.747-2.955,13.969,13.969,0,0,1,2.158.614q.448.2.448.432a.993.993,0,0,1-.382.647,3.8,3.8,0,0,0-.631,1.229q-.647,1.677-1.2,2.822h7.172a1.411,1.411,0,0,0,.647-.1.916.916,0,0,1,.515-.166q.332,0,.979.647.714.631.714.946a.652.652,0,0,1-.3.548,2.359,2.359,0,0,0-.581.913Q56.175,18.307,55.793,19.336Zm37.842,2.125h11.223v2.175H93.635v9.147q0,1.71.813,2.142a6.706,6.706,0,0,0,3.1.548q3.37,0,6.558-.315v2.557q-3.6.266-6.226.266-3.769,0-5.163-.813-1.693-1.013-1.693-4.084V23.636H83.542V21.461h7.487V13.99H84.637V11.766h19.108V13.99H93.635Zm17.61-8.666a58.26,58.26,0,0,1,7.985,5.063L117.537,20.1a49.437,49.437,0,0,0-7.819-5.3Zm17.133,1.693,2.557,1.229q-1.511,8.716-6.325,14.095a27.046,27.046,0,0,1-13.563,7.836l-1.162-2.308Q125.838,31.405,128.378,14.488Zm19.9,12.783a30.586,30.586,0,0,1-12.136,10.741l-1.494-1.959a29.849,29.849,0,0,0,11.106-9.546,34.391,34.391,0,0,0,4.98-12.252H136.458V11.981h17.631A45.62,45.62,0,0,1,149.607,25a76.367,76.367,0,0,1,7.919,11.422l-2.507,1.594A61.021,61.021,0,0,0,148.278,27.271Zm27.056-.1a37.533,37.533,0,0,0-7.039-4.765l1.395-1.859a51.746,51.746,0,0,1,6.939,4.25,32.8,32.8,0,0,0,2.822-9.762h-9.463a27.893,27.893,0,0,1-6.823,10.127L161.157,23.8a28.136,28.136,0,0,0,7.886-14.311l2.623.647q-.282,1.1-.78,2.656h11.754q-1.727,11.239-6.093,17.183a26.452,26.452,0,0,1-11.405,8.517l-1.61-1.909A24.907,24.907,0,0,0,175.334,27.172Zm11.932-4.117H205.76v2.523H187.266Z" transform="translate(-1.063 -8.645)" fill="#fff"/>
</svg>
